<svg width="14" height="14" viewBox="0 0 14 14" fill="none" xmlns="http://www.w3.org/2000/svg">
<path fill-rule="evenodd" clip-rule="evenodd" d="M6.64183 0.706252C6.85248 0.542415 7.14744 0.542415 7.35809 0.706252L12.6081 4.78959C12.7502 4.9001 12.8333 5.07003 12.8333 5.25004V11.6667C12.8333 12.1308 12.6489 12.576 12.3207 12.9041C11.9925 13.2323 11.5474 13.4167 11.0833 13.4167H2.91663C2.4525 13.4167 2.00738 13.2323 1.67919 12.9041C1.351 12.576 1.16663 12.1308 1.16663 11.6667V5.25004C1.16663 5.07003 1.24974 4.9001 1.39183 4.78959L6.64183 0.706252ZM2.33329 5.53534V11.6667C2.33329 11.8214 2.39475 11.9698 2.50415 12.0792C2.61354 12.1886 2.76192 12.25 2.91663 12.25H11.0833C11.238 12.25 11.3864 12.1886 11.4958 12.0792C11.6052 11.9698 11.6666 11.8214 11.6666 11.6667V5.53534L6.99996 1.90571L2.33329 5.53534Z" fill="white"/>
<path fill-rule="evenodd" clip-rule="evenodd" d="M4.66663 7.00004C4.66663 6.67787 4.92779 6.41671 5.24996 6.41671H8.74996C9.07213 6.41671 9.33329 6.67787 9.33329 7.00004V12.8334C9.33329 13.1555 9.07213 13.4167 8.74996 13.4167C8.42779 13.4167 8.16663 13.1555 8.16663 12.8334V7.58337H5.83329V12.8334C5.83329 13.1555 5.57213 13.4167 5.24996 13.4167C4.92779 13.4167 4.66663 13.1555 4.66663 12.8334V7.00004Z" fill="white"/>
</svg>
