<svg width="20" height="20" viewBox="0 0 20 20" fill="none" xmlns="http://www.w3.org/2000/svg">
<path d="M17.1667 9.54067H19.0834C19.0834 4.62442 15.3717 0.916626 10.4488 0.916626V2.83329C14.3415 2.83329 17.1667 5.65367 17.1667 9.54067Z" fill="#BDBDBD"/>
<path d="M10.4584 6.6666C12.4737 6.6666 13.3334 7.52622 13.3334 9.5416H15.25C15.25 6.45097 13.549 4.74993 10.4584 4.74993V6.6666ZM13.7378 11.8828C13.5536 11.7154 13.3116 11.6262 13.0629 11.6339C12.8142 11.6416 12.5782 11.7456 12.4047 11.924L10.1114 14.2825C9.55944 14.1771 8.44969 13.8311 7.30736 12.6916C6.16503 11.5484 5.81907 10.4357 5.71653 9.88756L8.07307 7.59331C8.25171 7.41997 8.35591 7.18393 8.3636 6.93513C8.37129 6.68633 8.28187 6.4443 8.11428 6.26027L4.57323 2.36656C4.40557 2.18194 4.17254 2.06996 3.92363 2.05439C3.67473 2.03882 3.42956 2.1209 3.24019 2.28318L1.16061 4.06664C0.994924 4.23293 0.896032 4.45424 0.882693 4.6886C0.868318 4.92818 0.594234 10.6034 4.9949 15.006C8.83398 18.8441 13.6429 19.1249 14.9673 19.1249C15.1609 19.1249 15.2797 19.1192 15.3114 19.1173C15.5457 19.1042 15.7669 19.0048 15.9324 18.8384L17.7149 16.7579C17.8773 16.5686 17.9595 16.3235 17.9441 16.0746C17.9287 15.8257 17.8169 15.5926 17.6324 15.4248L13.7378 11.8828Z" fill="#BDBDBD"/>
</svg>
