<svg width="14" height="14" viewBox="0 0 14 14" fill="none" xmlns="http://www.w3.org/2000/svg">
<g clip-path="url(#clip0)">
<path d="M11.6667 13.3583C11.6084 13.3583 11.5501 13.3583 11.4917 13.3583C9.62506 13.125 7.75839 12.4833 6.18339 11.4917C4.72506 10.5583 3.44172 9.27498 2.50839 7.81665C1.45839 6.24165 0.816724 4.37498 0.641724 2.50832C0.641724 2.04165 0.75839 1.57498 1.05006 1.22498C1.34172 0.874984 1.75006 0.64165 2.21672 0.583317C2.27506 0.583317 2.33339 0.583317 2.39172 0.583317H4.14172C5.01672 0.583317 5.77506 1.22498 5.89172 2.09998C5.95006 2.62498 6.06672 3.14998 6.24172 3.61665C6.47506 4.25832 6.30006 4.95832 5.83339 5.48332L5.42506 5.89165C6.12506 6.94165 7.00006 7.87498 8.10839 8.57498L8.51672 8.16665C8.98339 7.69998 9.74172 7.52498 10.3834 7.75832C10.8501 7.93332 11.3751 8.04998 11.9001 8.10832C12.7751 8.22498 13.4167 8.98332 13.4167 9.85832V11.6083C13.4167 12.075 13.2417 12.5417 12.8917 12.8333C12.5417 13.125 12.1334 13.3583 11.6667 13.3583ZM4.14172 1.74998H2.39172C2.21672 1.74998 2.04172 1.86665 1.92506 1.98332C1.86672 2.09998 1.80839 2.21665 1.80839 2.39165C1.98339 4.08332 2.56672 5.71665 3.50006 7.17498C4.37506 8.51665 5.48339 9.68332 6.82506 10.5C8.28339 11.4333 9.91672 12.0167 11.6084 12.1917C11.8417 12.1917 11.9584 12.1333 12.0751 12.0167C12.1917 11.9 12.2501 11.7833 12.2501 11.6083V9.85832C12.2501 9.56665 12.0167 9.33332 11.7251 9.27498C11.1417 9.21665 10.5584 9.04165 9.97506 8.80832C9.74172 8.74998 9.50839 8.74998 9.33339 8.92498L8.57506 9.68332C8.40006 9.85832 8.10839 9.91665 7.87506 9.79998C6.30006 8.92498 5.01672 7.64165 4.14172 6.06665C4.08339 5.83332 4.14172 5.54165 4.31672 5.36665L5.07506 4.60832C5.19172 4.49165 5.25006 4.19998 5.19172 4.02498C4.95839 3.44165 4.84172 2.85832 4.72506 2.27498C4.72506 1.98332 4.43339 1.74998 4.14172 1.74998ZM11.0834 5.83332C10.7917 5.83332 10.5584 5.65832 10.5001 5.36665C10.3251 4.43332 9.56672 3.73332 8.63339 3.49998C8.34172 3.44165 8.10839 3.14998 8.16672 2.79998C8.22506 2.50832 8.51672 2.27498 8.86672 2.33332C10.2667 2.62498 11.3751 3.67498 11.6084 5.07498C11.6667 5.36665 11.4917 5.71665 11.1417 5.77498C11.1417 5.77498 11.1417 5.83332 11.0834 5.83332ZM13.4167 5.77498C13.1251 5.77498 12.8917 5.54165 12.8334 5.24998C12.6001 3.09165 10.9084 1.39998 8.69172 1.10832C8.40006 1.04998 8.16672 0.758317 8.16672 0.46665C8.16672 0.174984 8.51672 -0.0583496 8.80839 -0.0583496C11.5501 0.233317 13.6501 2.33332 13.9417 5.07498C14.0001 5.36665 13.7667 5.65832 13.4167 5.71665C13.4751 5.77498 13.4167 5.77498 13.4167 5.77498Z" fill="white"/>
</g>
<defs>
<clipPath id="clip0">
<rect width="14" height="14" fill="white"/>
</clipPath>
</defs>
</svg>
