<svg width="21" height="21" viewBox="0 0 21 21" fill="none" xmlns="http://www.w3.org/2000/svg">
<path d="M12.1832 10.3246L9.82489 9.22423C9.61909 9.12868 9.45004 9.23578 9.45004 9.46363V11.5363C9.45004 11.7642 9.61909 11.8713 9.82489 11.7757L12.1821 10.6753C12.389 10.5787 12.389 10.4212 12.1832 10.3246ZM10.5 0.419983C4.93294 0.419983 0.420044 4.93288 0.420044 10.5C0.420044 16.0671 4.93294 20.58 10.5 20.58C16.0671 20.58 20.58 16.0671 20.58 10.5C20.58 4.93288 16.0671 0.419983 10.5 0.419983ZM10.5 14.595C5.34034 14.595 5.25004 14.1298 5.25004 10.5C5.25004 6.87013 5.34034 6.40498 10.5 6.40498C15.6597 6.40498 15.75 6.87013 15.75 10.5C15.75 14.1298 15.6597 14.595 10.5 14.595Z" fill="#BDBDBD"/>
</svg>
